name rise30.9205peak61.366fall85.3838.mot
datacolumns 19
datarows 33
range 15.25994800000000 15.31327200000000
endheader
time	ground_force1_vx	ground_force1_vy	ground_force1_vz	ground_force1_px	ground_force1_py	ground_force1_pz	ground_force2_vx	ground_force2_vy	ground_force2_vz	ground_force2_px	ground_force2_py	ground_force2_pz	ground_torque1_x	ground_torque1_y	ground_torque1_z	ground_torque2_x	ground_torque2_y	ground_torque2_z	
15.25994800000000	8.40907900000000	713.07208000000003	39.04126400000000	0.25507100000000	0.00000000000000	0.09985700000000	0.00000000000000	0.00000000000000	0.00000000000000	0.00000000000000	0.00000000000000	0.00000000000000	0.00000000000000	16.99603300000000	0.00000000000000	0.00000000000000	0.00000000000000	0.00000000000000	
15.26161000000000	8.02024100000000	713.20277699999997	39.08048300000000	0.25446900000000	0.00000000000000	0.09984300000000	0.00000000000000	0.00000000000000	0.00000000000000	0.00000000000000	0.00000000000000	0.00000000000000	0.00000000000000	17.05058700000000	0.00000000000000	0.00000000000000	0.00000000000000	0.00000000000000	
15.26327700000000	7.62777400000000	713.36438899999996	39.12077700000000	0.25387000000000	0.00000000000000	0.09982800000000	0.00000000000000	0.00000000000000	0.00000000000000	0.00000000000000	0.00000000000000	0.00000000000000	0.00000000000000	17.10713000000000	0.00000000000000	0.00000000000000	0.00000000000000	0.00000000000000	
15.26494100000000	7.23139200000000	713.55610200000001	39.16199800000000	0.25327300000000	0.00000000000000	0.09981400000000	0.00000000000000	0.00000000000000	0.00000000000000	0.00000000000000	0.00000000000000	0.00000000000000	0.00000000000000	17.16552500000000	0.00000000000000	0.00000000000000	0.00000000000000	0.00000000000000	
15.26660600000000	6.83081800000000	713.77712299999996	39.20401100000000	0.25267500000000	0.00000000000000	0.09979900000000	0.00000000000000	0.00000000000000	0.00000000000000	0.00000000000000	0.00000000000000	0.00000000000000	0.00000000000000	17.22564300000000	0.00000000000000	0.00000000000000	0.00000000000000	0.00000000000000	
15.26827200000000	6.42579000000000	714.02668500000004	39.24668800000000	0.25207400000000	0.00000000000000	0.09978400000000	0.00000000000000	0.00000000000000	0.00000000000000	0.00000000000000	0.00000000000000	0.00000000000000	0.00000000000000	17.28735700000000	0.00000000000000	0.00000000000000	0.00000000000000	0.00000000000000	
15.26994600000000	6.01605500000000	714.30404699999997	39.28991500000000	0.25146900000000	0.00000000000000	0.09976900000000	0.00000000000000	0.00000000000000	0.00000000000000	0.00000000000000	0.00000000000000	0.00000000000000	0.00000000000000	17.35054700000000	0.00000000000000	0.00000000000000	0.00000000000000	0.00000000000000	
15.27161300000000	5.60137500000000	714.60849800000005	39.33358800000000	0.25085700000000	0.00000000000000	0.09975500000000	0.00000000000000	0.00000000000000	0.00000000000000	0.00000000000000	0.00000000000000	0.00000000000000	0.00000000000000	17.41509900000000	0.00000000000000	0.00000000000000	0.00000000000000	0.00000000000000	
15.27327600000000	5.18152600000000	714.93936099999996	39.37761300000000	0.25023700000000	0.00000000000000	0.09974100000000	0.00000000000000	0.00000000000000	0.00000000000000	0.00000000000000	0.00000000000000	0.00000000000000	0.00000000000000	17.48090400000000	0.00000000000000	0.00000000000000	0.00000000000000	0.00000000000000	
15.27494100000000	4.75629900000000	715.29599599999995	39.42191000000000	0.24960600000000	0.00000000000000	0.09972700000000	0.00000000000000	0.00000000000000	0.00000000000000	0.00000000000000	0.00000000000000	0.00000000000000	0.00000000000000	17.54786000000000	0.00000000000000	0.00000000000000	0.00000000000000	0.00000000000000	
15.27660900000000	4.32550200000000	715.67779700000006	39.46640700000000	0.24896400000000	0.00000000000000	0.09971400000000	0.00000000000000	0.00000000000000	0.00000000000000	0.00000000000000	0.00000000000000	0.00000000000000	0.00000000000000	17.61587100000000	0.00000000000000	0.00000000000000	0.00000000000000	0.00000000000000	
15.27827800000000	3.88895900000000	716.08420000000001	39.51104600000000	0.24830800000000	0.00000000000000	0.09970100000000	0.00000000000000	0.00000000000000	0.00000000000000	0.00000000000000	0.00000000000000	0.00000000000000	0.00000000000000	17.68484700000000	0.00000000000000	0.00000000000000	0.00000000000000	0.00000000000000	
15.27994300000000	3.44651200000000	716.51468199999999	39.55578000000000	0.24763600000000	0.00000000000000	0.09969000000000	0.00000000000000	0.00000000000000	0.00000000000000	0.00000000000000	0.00000000000000	0.00000000000000	0.00000000000000	17.75470900000000	0.00000000000000	0.00000000000000	0.00000000000000	0.00000000000000	
15.28160700000000	2.99802100000000	716.96876099999997	39.60057100000000	0.24694900000000	0.00000000000000	0.09967900000000	0.00000000000000	0.00000000000000	0.00000000000000	0.00000000000000	0.00000000000000	0.00000000000000	0.00000000000000	17.82538100000000	0.00000000000000	0.00000000000000	0.00000000000000	0.00000000000000	
15.28327800000000	2.54336500000000	717.44599700000003	39.64539600000000	0.24624300000000	0.00000000000000	0.09966900000000	0.00000000000000	0.00000000000000	0.00000000000000	0.00000000000000	0.00000000000000	0.00000000000000	0.00000000000000	17.89679600000000	0.00000000000000	0.00000000000000	0.00000000000000	0.00000000000000	
15.28494200000000	2.08244200000000	717.94599800000003	39.69023900000000	0.24551900000000	0.00000000000000	0.09966000000000	0.00000000000000	0.00000000000000	0.00000000000000	0.00000000000000	0.00000000000000	0.00000000000000	0.00000000000000	17.96889600000000	0.00000000000000	0.00000000000000	0.00000000000000	0.00000000000000	
15.28661300000000	1.61517100000000	718.46841300000006	39.73509900000000	0.24477400000000	0.00000000000000	0.09965200000000	0.00000000000000	0.00000000000000	0.00000000000000	0.00000000000000	0.00000000000000	0.00000000000000	0.00000000000000	18.04162900000000	0.00000000000000	0.00000000000000	0.00000000000000	0.00000000000000	
15.28827600000000	1.14148800000000	719.01293699999997	39.77998400000000	0.24400900000000	0.00000000000000	0.09964600000000	0.00000000000000	0.00000000000000	0.00000000000000	0.00000000000000	0.00000000000000	0.00000000000000	0.00000000000000	18.11495100000000	0.00000000000000	0.00000000000000	0.00000000000000	0.00000000000000	
15.28994000000000	0.66135200000000	719.57931099999996	39.82491100000000	0.24322200000000	0.00000000000000	0.09964000000000	0.00000000000000	0.00000000000000	0.00000000000000	0.00000000000000	0.00000000000000	0.00000000000000	0.00000000000000	18.18882500000000	0.00000000000000	0.00000000000000	0.00000000000000	0.00000000000000	
15.29160600000000	0.17474000000000	720.16731800000002	39.86991200000000	0.24241300000000	0.00000000000000	0.09963600000000	0.00000000000000	0.00000000000000	0.00000000000000	0.00000000000000	0.00000000000000	0.00000000000000	0.00000000000000	18.26322300000000	0.00000000000000	0.00000000000000	0.00000000000000	0.00000000000000	
15.29327600000000	-0.31834800000000	720.77678700000001	39.91502500000000	0.24158200000000	0.00000000000000	0.09963300000000	0.00000000000000	0.00000000000000	0.00000000000000	0.00000000000000	0.00000000000000	0.00000000000000	0.00000000000000	18.33812400000000	0.00000000000000	0.00000000000000	0.00000000000000	0.00000000000000	
15.29494600000000	-0.81789400000000	721.40759100000002	39.96029900000000	0.24072800000000	0.00000000000000	0.09963200000000	0.00000000000000	0.00000000000000	0.00000000000000	0.00000000000000	0.00000000000000	0.00000000000000	0.00000000000000	18.41351300000000	0.00000000000000	0.00000000000000	0.00000000000000	0.00000000000000	
15.29660600000000	-1.32386000000000	722.05964400000005	40.00579500000000	0.23985100000000	0.00000000000000	0.09963200000000	0.00000000000000	0.00000000000000	0.00000000000000	0.00000000000000	0.00000000000000	0.00000000000000	0.00000000000000	18.48938400000000	0.00000000000000	0.00000000000000	0.00000000000000	0.00000000000000	
15.29828100000000	-1.83618600000000	722.73290099999997	40.05158100000000	0.23895100000000	0.00000000000000	0.09963300000000	0.00000000000000	0.00000000000000	0.00000000000000	0.00000000000000	0.00000000000000	0.00000000000000	0.00000000000000	18.56573500000000	0.00000000000000	0.00000000000000	0.00000000000000	0.00000000000000	
15.29994800000000	-2.35479600000000	723.42735900000002	40.09773400000000	0.23802800000000	0.00000000000000	0.09963500000000	0.00000000000000	0.00000000000000	0.00000000000000	0.00000000000000	0.00000000000000	0.00000000000000	0.00000000000000	18.64257400000000	0.00000000000000	0.00000000000000	0.00000000000000	0.00000000000000	
15.30161000000000	-2.87959000000000	724.14305100000001	40.14434300000000	0.23708400000000	0.00000000000000	0.09963900000000	0.00000000000000	0.00000000000000	0.00000000000000	0.00000000000000	0.00000000000000	0.00000000000000	0.00000000000000	18.71991200000000	0.00000000000000	0.00000000000000	0.00000000000000	0.00000000000000	
15.30327300000000	-3.41045400000000	724.88004699999999	40.19150100000000	0.23611700000000	0.00000000000000	0.09964500000000	0.00000000000000	0.00000000000000	0.00000000000000	0.00000000000000	0.00000000000000	0.00000000000000	0.00000000000000	18.79776800000000	0.00000000000000	0.00000000000000	0.00000000000000	0.00000000000000	
15.30494400000000	-3.94725200000000	725.63845200000003	40.23931200000000	0.23512900000000	0.00000000000000	0.09965100000000	0.00000000000000	0.00000000000000	0.00000000000000	0.00000000000000	0.00000000000000	0.00000000000000	0.00000000000000	18.87616300000000	0.00000000000000	0.00000000000000	0.00000000000000	0.00000000000000	
15.30660900000000	-4.48983300000000	726.41840200000001	40.28788800000000	0.23412000000000	0.00000000000000	0.09965900000000	0.00000000000000	0.00000000000000	0.00000000000000	0.00000000000000	0.00000000000000	0.00000000000000	0.00000000000000	18.95512600000000	0.00000000000000	0.00000000000000	0.00000000000000	0.00000000000000	
15.30827600000000	-5.03802700000000	727.22006199999998	40.33734700000000	0.23309200000000	0.00000000000000	0.09966800000000	0.00000000000000	0.00000000000000	0.00000000000000	0.00000000000000	0.00000000000000	0.00000000000000	0.00000000000000	19.03468800000000	0.00000000000000	0.00000000000000	0.00000000000000	0.00000000000000	
15.30994200000000	-5.59164900000000	728.04362500000002	40.38781400000000	0.23204500000000	0.00000000000000	0.09967800000000	0.00000000000000	0.00000000000000	0.00000000000000	0.00000000000000	0.00000000000000	0.00000000000000	0.00000000000000	19.11488500000000	0.00000000000000	0.00000000000000	0.00000000000000	0.00000000000000	
15.31162400000000	-6.15049700000000	728.88930700000003	40.43942200000000	0.23098000000000	0.00000000000000	0.09969000000000	0.00000000000000	0.00000000000000	0.00000000000000	0.00000000000000	0.00000000000000	0.00000000000000	0.00000000000000	19.19575300000000	0.00000000000000	0.00000000000000	0.00000000000000	0.00000000000000	
15.31327200000000	-6.71435600000000	729.75734399999999	40.49230800000000	0.22989900000000	0.00000000000000	0.09970200000000	0.00000000000000	0.00000000000000	0.00000000000000	0.00000000000000	0.00000000000000	0.00000000000000	0.00000000000000	19.27733400000000	0.00000000000000	0.00000000000000	0.00000000000000	0.00000000000000	
